<?xml version="1.0" encoding="UTF-8"?>
<svg xmlns="http://www.w3.org/2000/svg" xmlns:xlink="http://www.w3.org/1999/xlink" class="canvas" viewBox="235 505 82 100" width="82" height="100"><metadata id="eda-meta">{"format":"EDA-SmartSymbol-1.0","component":{"lib_reference":"LED0","designator":"D3","unique_id":"TQBCFABW","display_mode":0,"anchor_schema":"pin","pins":[{"order_index":1,"number":"1","number_original":"","name":"A","electrical_type":"passive","x":270,"y":580,"orientation":33},{"order_index":2,"number":"2","number_original":"","name":"K","electrical_type":"passive","x":270,"y":530,"orientation":35}]}}</metadata><g id="graphics"><polyline points="260,560 270,550 280,560 260,560" fill="#FEFBCB" stroke="#8B0000" stroke-width="1.5"/><line x1="280" y1="546" x2="287" y2="539" stroke="#8B0000" stroke-width="1.5"/><line x1="284" y1="550" x2="291" y2="543" stroke="#8B0000" stroke-width="1.5"/><polyline points="287,539 285,543 283,541 287,539" fill="#FEFBCB" stroke="#8B0000" stroke-width="1.5"/><polyline points="291,543 289,547 287,545 291,543" fill="#FEFBCB" stroke="#8B0000" stroke-width="1.5"/><line x1="280" y1="550" x2="260" y2="550" stroke="#8B0000" stroke-width="1.5"/></g><g id="pins"><line x1="270" y1="560" x2="270" y2="580" stroke="#8B0000" stroke-width="1.5"/><text dominant-baseline="middle" text-anchor="middle" x="270" y="555" transform="rotate(-90 270 555)" fill="#000080" font-size="8" font-family="monospace">A</text><text dominant-baseline="middle" text-anchor="middle" x="270" y="585" transform="rotate(-90 270 585)" fill="#000080" font-size="8" font-family="monospace">1</text><line x1="270" y1="550" x2="270" y2="530" stroke="#8B0000" stroke-width="1.5"/><text dominant-baseline="middle" text-anchor="middle" x="270" y="555" transform="rotate(-90 270 555)" fill="#000080" font-size="8" font-family="monospace">K</text><text dominant-baseline="middle" text-anchor="middle" x="270" y="525" transform="rotate(-90 270 525)" fill="#000080" font-size="8" font-family="monospace">2</text></g><g id="anchors"><g class="connection-point" role="connection-point" data-order-index="1" data-pin-number="1" data-number-original="" data-pin-name="A" data-elec-type="passive" data-orientation="33" data-x="270" data-y="580"><circle cx="270" cy="580"/><title>#1 → Pin 1 (原:): A [passive]</title></g><g class="connection-point" role="connection-point" data-order-index="2" data-pin-number="2" data-number-original="" data-pin-name="K" data-elec-type="passive" data-orientation="35" data-x="270" data-y="530"><circle cx="270" cy="530"/><title>#2 → Pin 2 (原:): K [passive]</title></g></g><g id="labels"><text x="292" y="551" fill="#000080" font-size="9" font-weight="bold" font-family="monospace" text-anchor="middle" dominant-baseline="central">D3</text><text x="292" y="561" fill="#666" font-size="7" font-weight="normal" font-family="monospace" text-anchor="middle" dominant-baseline="central">D3</text></g></svg>